<svg width="300" height="300" viewBox="0 0 300 300" fill="none" xmlns="http://www.w3.org/2000/svg">
<rect width="300" height="300" fill="#1E1E1E"/>
<rect width="300" height="300" fill="#1A233A"/>
<circle cx="111" cy="150" r="75" fill="#D9D9D9"/>
<path d="M71.0362 194V114.364H95.1449V128.984H96.0263C97.6854 124.145 100.485 120.326 104.425 117.526C108.366 114.727 113.067 113.327 118.528 113.327C124.058 113.327 128.793 114.744 132.734 117.578C136.674 120.412 139.18 124.214 140.251 128.984H141.081C142.567 124.249 145.471 120.464 149.791 117.63C154.112 114.761 159.21 113.327 165.086 113.327C172.621 113.327 178.739 115.746 183.44 120.585C188.14 125.39 190.491 131.991 190.491 140.391V194H165.138V146.197C165.138 142.223 164.118 139.198 162.079 137.124C160.04 135.016 157.395 133.962 154.146 133.962C150.655 133.962 147.907 135.102 145.903 137.384C143.933 139.63 142.947 142.655 142.947 146.457V194H118.58V145.938C118.58 142.24 117.577 139.319 115.572 137.176C113.568 135.033 110.924 133.962 107.64 133.962C105.428 133.962 103.475 134.497 101.781 135.569C100.088 136.606 98.7569 138.092 97.7891 140.028C96.8558 141.963 96.3892 144.245 96.3892 146.871V194H71.0362Z" fill="#1A233A"/>
<path d="M186.89 194V116.182H205.698V147.415H236.362V116.182H255.132V194H236.362V162.728H205.698V194H186.89Z" fill="white"/>
<path d="M71.8807 197.364H75.3636L78.3182 204.568H78.4545L81.4091 197.364H84.892V209H82.1534V201.852H82.0568L79.2614 208.926H77.5114L74.7159 201.812H74.6193V209H71.8807V197.364ZM97.6293 203.182C97.6293 204.462 97.383 205.547 96.8906 206.438C96.3982 207.328 95.7315 208.004 94.8906 208.466C94.0535 208.928 93.1141 209.159 92.0724 209.159C91.027 209.159 90.0857 208.926 89.2486 208.46C88.4115 207.994 87.7467 207.318 87.2543 206.432C86.7656 205.542 86.5213 204.458 86.5213 203.182C86.5213 201.902 86.7656 200.816 87.2543 199.926C87.7467 199.036 88.4115 198.36 89.2486 197.898C90.0857 197.436 91.027 197.205 92.0724 197.205C93.1141 197.205 94.0535 197.436 94.8906 197.898C95.7315 198.36 96.3982 199.036 96.8906 199.926C97.383 200.816 97.6293 201.902 97.6293 203.182ZM94.7543 203.182C94.7543 202.424 94.6463 201.784 94.4304 201.261C94.2183 200.739 93.9115 200.343 93.5099 200.074C93.1122 199.805 92.633 199.67 92.0724 199.67C91.5156 199.67 91.0365 199.805 90.6349 200.074C90.2334 200.343 89.9247 200.739 89.7088 201.261C89.4967 201.784 89.3906 202.424 89.3906 203.182C89.3906 203.939 89.4967 204.58 89.7088 205.102C89.9247 205.625 90.2334 206.021 90.6349 206.29C91.0365 206.559 91.5156 206.693 92.0724 206.693C92.633 206.693 93.1122 206.559 93.5099 206.29C93.9115 206.021 94.2183 205.625 94.4304 205.102C94.6463 204.58 94.7543 203.939 94.7543 203.182ZM99.2713 209V197.364H104.124C104.995 197.364 105.724 197.487 106.311 197.733C106.902 197.979 107.345 198.324 107.641 198.767C107.94 199.21 108.089 199.723 108.089 200.307C108.089 200.75 107.997 201.146 107.811 201.494C107.625 201.839 107.37 202.125 107.044 202.352C106.718 202.58 106.341 202.739 105.913 202.83V202.943C106.383 202.966 106.817 203.093 107.214 203.324C107.616 203.555 107.938 203.877 108.18 204.29C108.423 204.699 108.544 205.184 108.544 205.744C108.544 206.369 108.385 206.928 108.067 207.42C107.749 207.909 107.288 208.295 106.686 208.58C106.084 208.86 105.353 209 104.493 209H99.2713ZM102.084 206.733H103.822C104.432 206.733 104.881 206.617 105.169 206.386C105.461 206.155 105.607 205.833 105.607 205.42C105.607 205.121 105.536 204.864 105.396 204.648C105.256 204.428 105.057 204.259 104.8 204.142C104.542 204.021 104.233 203.96 103.874 203.96H102.084V206.733ZM102.084 202.148H103.641C103.947 202.148 104.22 202.097 104.459 201.994C104.697 201.892 104.883 201.744 105.016 201.551C105.152 201.358 105.22 201.125 105.22 200.852C105.22 200.462 105.082 200.155 104.805 199.932C104.529 199.708 104.156 199.597 103.686 199.597H102.084V202.148ZM112.709 197.364V209H109.896V197.364H112.709ZM114.474 209V197.364H117.287V206.716H122.128V209H114.474ZM123.584 209V197.364H131.697V199.648H126.396V202.034H131.283V204.324H126.396V206.716H131.697V209H123.584Z" fill="#1A233A"/>
<path d="M186.881 209V197.364H189.693V202.034H194.278V197.364H197.085V209H194.278V204.324H189.693V209H186.881ZM209.832 203.182C209.832 204.462 209.586 205.547 209.094 206.438C208.601 207.328 207.935 208.004 207.094 208.466C206.257 208.928 205.317 209.159 204.276 209.159C203.23 209.159 202.289 208.926 201.452 208.46C200.615 207.994 199.95 207.318 199.457 206.432C198.969 205.542 198.724 204.458 198.724 203.182C198.724 201.902 198.969 200.816 199.457 199.926C199.95 199.036 200.615 198.36 201.452 197.898C202.289 197.436 203.23 197.205 204.276 197.205C205.317 197.205 206.257 197.436 207.094 197.898C207.935 198.36 208.601 199.036 209.094 199.926C209.586 200.816 209.832 201.902 209.832 203.182ZM206.957 203.182C206.957 202.424 206.849 201.784 206.634 201.261C206.421 200.739 206.115 200.343 205.713 200.074C205.315 199.805 204.836 199.67 204.276 199.67C203.719 199.67 203.24 199.805 202.838 200.074C202.437 200.343 202.128 200.739 201.912 201.261C201.7 201.784 201.594 202.424 201.594 203.182C201.594 203.939 201.7 204.58 201.912 205.102C202.128 205.625 202.437 206.021 202.838 206.29C203.24 206.559 203.719 206.693 204.276 206.693C204.836 206.693 205.315 206.559 205.713 206.29C206.115 206.021 206.421 205.625 206.634 205.102C206.849 204.58 206.957 203.939 206.957 203.182ZM218.514 197.364H221.321V204.869C221.321 205.737 221.115 206.492 220.702 207.136C220.289 207.777 219.713 208.273 218.974 208.625C218.236 208.973 217.378 209.148 216.401 209.148C215.412 209.148 214.548 208.973 213.81 208.625C213.071 208.273 212.497 207.777 212.088 207.136C211.679 206.492 211.474 205.737 211.474 204.869V197.364H214.287V204.625C214.287 205.027 214.374 205.384 214.548 205.699C214.726 206.013 214.974 206.259 215.293 206.438C215.611 206.616 215.98 206.705 216.401 206.705C216.821 206.705 217.188 206.616 217.503 206.438C217.821 206.259 218.069 206.013 218.247 205.699C218.425 205.384 218.514 205.027 218.514 204.625V197.364ZM229.374 200.852C229.336 200.436 229.167 200.112 228.868 199.881C228.572 199.646 228.15 199.528 227.601 199.528C227.237 199.528 226.934 199.576 226.692 199.67C226.449 199.765 226.268 199.896 226.146 200.062C226.025 200.225 225.963 200.413 225.959 200.625C225.951 200.799 225.985 200.953 226.061 201.085C226.141 201.218 226.254 201.335 226.402 201.438C226.554 201.536 226.735 201.623 226.947 201.699C227.16 201.775 227.398 201.841 227.663 201.898L228.663 202.125C229.239 202.25 229.747 202.417 230.186 202.625C230.629 202.833 231 203.081 231.3 203.369C231.603 203.657 231.832 203.989 231.987 204.364C232.143 204.739 232.222 205.159 232.226 205.625C232.222 206.36 232.036 206.991 231.669 207.517C231.302 208.044 230.773 208.447 230.084 208.727C229.398 209.008 228.571 209.148 227.601 209.148C226.627 209.148 225.779 209.002 225.055 208.71C224.332 208.419 223.769 207.975 223.368 207.381C222.966 206.786 222.76 206.034 222.749 205.125H225.442C225.464 205.5 225.565 205.812 225.743 206.062C225.921 206.312 226.165 206.502 226.476 206.631C226.79 206.759 227.154 206.824 227.567 206.824C227.946 206.824 228.268 206.773 228.533 206.67C228.802 206.568 229.008 206.426 229.152 206.244C229.296 206.062 229.37 205.854 229.374 205.619C229.37 205.4 229.302 205.212 229.169 205.057C229.036 204.898 228.832 204.761 228.555 204.648C228.283 204.53 227.934 204.422 227.51 204.324L226.294 204.04C225.286 203.809 224.493 203.436 223.913 202.92C223.334 202.402 223.046 201.701 223.05 200.818C223.046 200.098 223.239 199.468 223.629 198.926C224.019 198.384 224.559 197.962 225.249 197.659C225.938 197.356 226.724 197.205 227.607 197.205C228.508 197.205 229.29 197.358 229.953 197.665C230.62 197.968 231.137 198.394 231.504 198.943C231.872 199.492 232.059 200.129 232.067 200.852H229.374ZM233.646 209V197.364H241.76V199.648H236.459V202.034H241.345V204.324H236.459V206.716H241.76V209H233.646Z" fill="white"/>
</svg>
