<svg width="295" height="163" viewBox="0 0 295 163" fill="none" xmlns="http://www.w3.org/2000/svg">
<rect width="295" height="163" fill="#1E1E1E"/>
<rect width="295" height="163" fill="white"/>
<circle cx="111" cy="81" r="75" fill="#1A233A"/>
<path d="M71.0362 125V45.3636H95.1449V59.9844H96.0263C97.6854 55.1454 100.485 51.326 104.425 48.5263C108.366 45.7266 113.067 44.3267 118.528 44.3267C124.058 44.3267 128.793 45.7438 132.734 48.5781C136.674 51.4124 139.18 55.2145 140.251 59.9844H141.081C142.567 55.2491 145.471 51.4643 149.791 48.63C154.112 45.7611 159.21 44.3267 165.086 44.3267C172.621 44.3267 178.739 46.7462 183.44 51.5852C188.14 56.3897 190.491 62.9915 190.491 71.3906V125H165.138V77.1974C165.138 73.2225 164.118 70.1982 162.079 68.1243C160.04 66.0159 157.395 64.9616 154.146 64.9616C150.655 64.9616 147.907 66.1023 145.903 68.3835C143.933 70.6302 142.947 73.6546 142.947 77.4567V125H118.58V76.9382C118.58 73.2398 117.577 70.3191 115.572 68.1761C113.568 66.0331 110.924 64.9616 107.64 64.9616C105.428 64.9616 103.475 65.4974 101.781 66.5689C100.088 67.6058 98.7569 69.0921 97.7891 71.0277C96.8558 72.9633 96.3892 75.2446 96.3892 77.8714V125H71.0362Z" fill="white"/>
<path d="M186.89 125V47.1818H205.698V78.4155H236.362V47.1818H255.132V125H236.362V93.7283H205.698V125H186.89Z" fill="#1A233A"/>
<path d="M71.8807 128.364H75.3636L78.3182 135.568H78.4545L81.4091 128.364H84.892V140H82.1534V132.852H82.0568L79.2614 139.926H77.5114L74.7159 132.812H74.6193V140H71.8807V128.364ZM97.6293 134.182C97.6293 135.462 97.383 136.547 96.8906 137.438C96.3982 138.328 95.7315 139.004 94.8906 139.466C94.0535 139.928 93.1141 140.159 92.0724 140.159C91.027 140.159 90.0857 139.926 89.2486 139.46C88.4115 138.994 87.7467 138.318 87.2543 137.432C86.7656 136.542 86.5213 135.458 86.5213 134.182C86.5213 132.902 86.7656 131.816 87.2543 130.926C87.7467 130.036 88.4115 129.36 89.2486 128.898C90.0857 128.436 91.027 128.205 92.0724 128.205C93.1141 128.205 94.0535 128.436 94.8906 128.898C95.7315 129.36 96.3982 130.036 96.8906 130.926C97.383 131.816 97.6293 132.902 97.6293 134.182ZM94.7543 134.182C94.7543 133.424 94.6463 132.784 94.4304 132.261C94.2183 131.739 93.9115 131.343 93.5099 131.074C93.1122 130.805 92.633 130.67 92.0724 130.67C91.5156 130.67 91.0365 130.805 90.6349 131.074C90.2334 131.343 89.9247 131.739 89.7088 132.261C89.4967 132.784 89.3906 133.424 89.3906 134.182C89.3906 134.939 89.4967 135.58 89.7088 136.102C89.9247 136.625 90.2334 137.021 90.6349 137.29C91.0365 137.559 91.5156 137.693 92.0724 137.693C92.633 137.693 93.1122 137.559 93.5099 137.29C93.9115 137.021 94.2183 136.625 94.4304 136.102C94.6463 135.58 94.7543 134.939 94.7543 134.182ZM99.2713 140V128.364H104.124C104.995 128.364 105.724 128.487 106.311 128.733C106.902 128.979 107.345 129.324 107.641 129.767C107.94 130.21 108.089 130.723 108.089 131.307C108.089 131.75 107.997 132.146 107.811 132.494C107.625 132.839 107.37 133.125 107.044 133.352C106.718 133.58 106.341 133.739 105.913 133.83V133.943C106.383 133.966 106.817 134.093 107.214 134.324C107.616 134.555 107.938 134.877 108.18 135.29C108.423 135.699 108.544 136.184 108.544 136.744C108.544 137.369 108.385 137.928 108.067 138.42C107.749 138.909 107.288 139.295 106.686 139.58C106.084 139.86 105.353 140 104.493 140H99.2713ZM102.084 137.733H103.822C104.432 137.733 104.881 137.617 105.169 137.386C105.461 137.155 105.607 136.833 105.607 136.42C105.607 136.121 105.536 135.864 105.396 135.648C105.256 135.428 105.057 135.259 104.8 135.142C104.542 135.021 104.233 134.96 103.874 134.96H102.084V137.733ZM102.084 133.148H103.641C103.947 133.148 104.22 133.097 104.459 132.994C104.697 132.892 104.883 132.744 105.016 132.551C105.152 132.358 105.22 132.125 105.22 131.852C105.22 131.462 105.082 131.155 104.805 130.932C104.529 130.708 104.156 130.597 103.686 130.597H102.084V133.148ZM112.709 128.364V140H109.896V128.364H112.709ZM114.474 140V128.364H117.287V137.716H122.128V140H114.474ZM123.584 140V128.364H131.697V130.648H126.396V133.034H131.283V135.324H126.396V137.716H131.697V140H123.584Z" fill="white"/>
<path d="M186.881 140V128.364H189.693V133.034H194.278V128.364H197.085V140H194.278V135.324H189.693V140H186.881ZM209.832 134.182C209.832 135.462 209.586 136.547 209.094 137.438C208.601 138.328 207.935 139.004 207.094 139.466C206.257 139.928 205.317 140.159 204.276 140.159C203.23 140.159 202.289 139.926 201.452 139.46C200.615 138.994 199.95 138.318 199.457 137.432C198.969 136.542 198.724 135.458 198.724 134.182C198.724 132.902 198.969 131.816 199.457 130.926C199.95 130.036 200.615 129.36 201.452 128.898C202.289 128.436 203.23 128.205 204.276 128.205C205.317 128.205 206.257 128.436 207.094 128.898C207.935 129.36 208.601 130.036 209.094 130.926C209.586 131.816 209.832 132.902 209.832 134.182ZM206.957 134.182C206.957 133.424 206.849 132.784 206.634 132.261C206.421 131.739 206.115 131.343 205.713 131.074C205.315 130.805 204.836 130.67 204.276 130.67C203.719 130.67 203.24 130.805 202.838 131.074C202.437 131.343 202.128 131.739 201.912 132.261C201.7 132.784 201.594 133.424 201.594 134.182C201.594 134.939 201.7 135.58 201.912 136.102C202.128 136.625 202.437 137.021 202.838 137.29C203.24 137.559 203.719 137.693 204.276 137.693C204.836 137.693 205.315 137.559 205.713 137.29C206.115 137.021 206.421 136.625 206.634 136.102C206.849 135.58 206.957 134.939 206.957 134.182ZM218.514 128.364H221.321V135.869C221.321 136.737 221.115 137.492 220.702 138.136C220.289 138.777 219.713 139.273 218.974 139.625C218.236 139.973 217.378 140.148 216.401 140.148C215.412 140.148 214.548 139.973 213.81 139.625C213.071 139.273 212.497 138.777 212.088 138.136C211.679 137.492 211.474 136.737 211.474 135.869V128.364H214.287V135.625C214.287 136.027 214.374 136.384 214.548 136.699C214.726 137.013 214.974 137.259 215.293 137.438C215.611 137.616 215.98 137.705 216.401 137.705C216.821 137.705 217.188 137.616 217.503 137.438C217.821 137.259 218.069 137.013 218.247 136.699C218.425 136.384 218.514 136.027 218.514 135.625V128.364ZM229.374 131.852C229.336 131.436 229.167 131.112 228.868 130.881C228.572 130.646 228.15 130.528 227.601 130.528C227.237 130.528 226.934 130.576 226.692 130.67C226.449 130.765 226.268 130.896 226.146 131.062C226.025 131.225 225.963 131.413 225.959 131.625C225.951 131.799 225.985 131.953 226.061 132.085C226.141 132.218 226.254 132.335 226.402 132.438C226.554 132.536 226.735 132.623 226.947 132.699C227.16 132.775 227.398 132.841 227.663 132.898L228.663 133.125C229.239 133.25 229.747 133.417 230.186 133.625C230.629 133.833 231 134.081 231.3 134.369C231.603 134.657 231.832 134.989 231.987 135.364C232.143 135.739 232.222 136.159 232.226 136.625C232.222 137.36 232.036 137.991 231.669 138.517C231.302 139.044 230.773 139.447 230.084 139.727C229.398 140.008 228.571 140.148 227.601 140.148C226.627 140.148 225.779 140.002 225.055 139.71C224.332 139.419 223.769 138.975 223.368 138.381C222.966 137.786 222.76 137.034 222.749 136.125H225.442C225.464 136.5 225.565 136.812 225.743 137.062C225.921 137.312 226.165 137.502 226.476 137.631C226.79 137.759 227.154 137.824 227.567 137.824C227.946 137.824 228.268 137.773 228.533 137.67C228.802 137.568 229.008 137.426 229.152 137.244C229.296 137.062 229.37 136.854 229.374 136.619C229.37 136.4 229.302 136.212 229.169 136.057C229.036 135.898 228.832 135.761 228.555 135.648C228.283 135.53 227.934 135.422 227.51 135.324L226.294 135.04C225.286 134.809 224.493 134.436 223.913 133.92C223.334 133.402 223.046 132.701 223.05 131.818C223.046 131.098 223.239 130.468 223.629 129.926C224.019 129.384 224.559 128.962 225.249 128.659C225.938 128.356 226.724 128.205 227.607 128.205C228.508 128.205 229.29 128.358 229.953 128.665C230.62 128.968 231.137 129.394 231.504 129.943C231.872 130.492 232.059 131.129 232.067 131.852H229.374ZM233.646 140V128.364H241.76V130.648H236.459V133.034H241.345V135.324H236.459V137.716H241.76V140H233.646Z" fill="#1A233A"/>
</svg>
